<svg width="56" height="47" viewBox="0 0 56 47" fill="none" xmlns="http://www.w3.org/2000/svg">
<g id="comment">
<path id="Vector" d="M28 0C12.6 0 0 8.59047 0 18.899C0 25.7714 7 31.9566 14 35.3928C14 42.6087 4.35556 47 4.35556 47C14.1556 47 22.4 40.547 24.85 37.7981H28C43.4 37.7981 56 29.2076 56 18.899C56 8.59047 43.4 0 28 0Z" fill="#2B1D1A"/>
<g id="dot-1">
<path id="Vector_2" d="M19.8293 20.4102C19.8293 21.3146 19.4695 22.182 18.8291 22.8215C18.1888 23.461 17.3203 23.8203 16.4146 23.8203C15.509 23.8203 14.6405 23.461 14.0001 22.8215C13.3598 22.182 13 21.3146 13 20.4102C13 19.5057 13.3598 18.6383 14.0001 17.9988C14.6405 17.3593 15.509 17 16.4146 17C17.3203 17 18.1888 17.3593 18.8291 17.9988C19.4695 18.6383 19.8293 19.5057 19.8293 20.4102Z" fill="white"/>
</g>
<g id="dot-2">
<path id="Vector_3" d="M31.8293 20.4102C31.8293 21.3146 31.4695 22.182 30.8291 22.8215C30.1888 23.461 29.3203 23.8203 28.4146 23.8203C27.509 23.8203 26.6405 23.461 26.0001 22.8215C25.3598 22.182 25 21.3146 25 20.4102C25 19.5057 25.3598 18.6383 26.0001 17.9988C26.6405 17.3593 27.509 17 28.4146 17C29.3203 17 30.1888 17.3593 30.8291 17.9988C31.4695 18.6383 31.8293 19.5057 31.8293 20.4102Z" fill="white"/>
</g>
<g id="dot-3">
<path id="Vector_4" d="M43.8293 20.4102C43.8293 21.3146 43.4695 22.182 42.8291 22.8215C42.1888 23.461 41.3203 23.8203 40.4146 23.8203C39.509 23.8203 38.6405 23.461 38.0001 22.8215C37.3598 22.182 37 21.3146 37 20.4102C37 19.5057 37.3598 18.6383 38.0001 17.9988C38.6405 17.3593 39.509 17 40.4146 17C41.3203 17 42.1888 17.3593 42.8291 17.9988C43.4695 18.6383 43.8293 19.5057 43.8293 20.4102Z" fill="white"/>
</g>
</g>
</svg>
